# xmcd
#
# Track frame offsets: 
#        150
#        20947
#        40155
#        59887
#        85307
#        102100
#        132065
#        151150
#        173802
#        191187
#        211457
#        263022
#        289545
#        311975
#        335775
#
# Disc length: 4740 seconds
#
# Revision: 0
# Processed by: cddbd v1.5.2PL0 Copyright (c) Steve Scherf et al.
# Submitted via: ExactAudioCopy v0.99pb5
#
DISCID=e312820f
DTITLE=R. Kelly - 12 Play
DYEAR=1993
DGENRE=R&B
TTITLE0=Your Body's Callin'
TTITLE1=Bump N' Grind
TTITLE2=Homie Lover Friend
TTITLE3=It Seems Like You're Ready
TTITLE4=Freak Dat Body
TTITLE5=I Like The Crotch On You
TTITLE6=Summer Bunnies
TTITLE7=For You
TTITLE8=Back To The Hood Of Things
TTITLE9=Sadie
TTITLE10=Sex Me (Part I) (Part II)
TTITLE11=.....
TTITLE12=Your Body's Callin' (His and Hers Mix)
TTITLE13=Summer Bunnies (Summer Bunnies Contest Extended Remix)
TTITLE14=Bump N' Grind (Old School Mix)
EXTD=
EXTT0=
EXTT1=
EXTT2=
EXTT3=
EXTT4=
EXTT5=
EXTT6=
EXTT7=
EXTT8=
EXTT9=
EXTT10=
EXTT11=
EXTT12=
EXTT13=
EXTT14=
PLAYORDER=
